<svg xmlns="http://www.w3.org/2000/svg" fill-rule="evenodd" stroke-linejoin="round" stroke-miterlimit="2" clip-rule="evenodd" viewBox="0 0 32 32" id="users"><g><path d="M9.95 6c-3.311 0-6 2.689-6 6 0 3.311 2.689 6 6 6 3.312 0 6-2.689 6-6 0-3.311-2.688-6-6-6zm0 2c2.208 0 4 1.792 4 4 0 2.208-1.792 4-4 4-2.207 0-4-1.792-4-4 0-2.208 1.793-4 4-4zM23.95 6c-3.311 0-6 2.689-6 6 0 3.311 2.689 6 6 6 3.312 0 6-2.689 6-6 0-3.311-2.688-6-6-6zm0 2c2.208 0 4 1.792 4 4 0 2.208-1.792 4-4 4-2.207 0-4-1.792-4-4 0-2.208 1.793-4 4-4zM16.95 20.255c-1.971-1.419-4.388-2.255-7-2.255-2.88 0-5.524 1.017-7.593 2.711-.428.349-.49.98-.141 1.407.35.427.98.49 1.407.14 1.724-1.411 3.928-2.258 6.327-2.258 2.002 0 3.866.589 5.43 1.603-.861.879-1.587 1.889-2.147 2.998-.249.492-.051 1.094.441 1.343.493.249 1.095.051 1.344-.442 1.648-3.262 5.03-5.502 8.932-5.502 1.653 0 3.212.401 4.585 1.112.491.254 1.094.062 1.348-.428.254-.49.062-1.094-.428-1.348-1.65-.853-3.521-1.336-5.505-1.336-2.611 0-5.029.836-7 2.255z"></path></g></svg>